# xmcd CD database file
#
# Track frame offsets:
#	150
#	33790
#	81362
#	123465
#	177187
#	223470
#	252565
#
# Disc length: 3992 seconds
#
# Revision: 0
# Processed by: cddbd v1.5.2PL0 Copyright (c) Steve Scherf et al.
# Submitted via: CDex 1.79
#
DISCID=640f9607
DTITLE=Bertrand Lajudie - Watercolours
DYEAR=2002
DGENRE=Jazz
TTITLE0=Scrambled
TTITLE1=Asteroid
TTITLE2=Zoe
TTITLE3=Hispano Suiza
TTITLE4=Quartet
TTITLE5=Delirium
TTITLE6=Chromosphere
EXTD=YEAR: 2002
EXTT0=
EXTT1=
EXTT2=
EXTT3=
EXTT4=
EXTT5=
EXTT6=
PLAYORDER=
